# xmcd
#
# Track frame offsets:
#   150
#   14337
#   30014
#   49314
#   92663
#   110575
#   126879
#   147311
#   190630
#   211527
#   236172
#   269889
#   293566
#
# Disc length: 4241 seconds
#
# Revision: 0
# Processed by: cddbd v1.5.1PL2 Copyright (c) Steve Scherf et al.
# Submitted via: GXTranscoder 2.0.1939
#
DISCID=b5108f0d
DTITLE=a - aa
DYEAR=2001
DGENRE=Children's Music
TTITLE0=1
TTITLE1=2
TTITLE2=3
TTITLE3=4
TTITLE4=5
TTITLE5=6
TTITLE6=7
TTITLE7=8
TTITLE8=9
TTITLE9=10
TTITLE10=11
TTITLE11=12
TTITLE12=13
EXTD=
EXTT0=
EXTT1=
EXTT2=
EXTT3=
EXTT4=
EXTT5=
EXTT6=
EXTT7=
EXTT8=
EXTT9=
EXTT10=
EXTT11=
EXTT12=
PLAYORDER=
